<svg width="36" height="29" viewBox="0 0 36 29" fill="none" xmlns="http://www.w3.org/2000/svg">
<path d="M16.0611 27.5C17.0718 28.2216 18.4282 28.2216 19.4389 27.5C25 24.5 27 23.5 32.6744 18.7538C34.3509 16.0939 35.0537 13.9429 35.3301 12.184C35.4416 11.5647 35.5 10.9257 35.5 10.2725C35.5 4.59918 31.097 0 25.6655 0C22.4197 0 19.5411 1.64254 17.75 4.17528C15.9589 1.64254 13.0803 0 9.83446 0C4.40304 0 0 4.59918 0 10.2725C0 10.9257 0.0583629 11.5647 0.169939 12.184C0.446337 13.9429 1.14906 16.0939 2.82555 18.7538C9 23.5 11 24.5 16.0611 27.5Z" fill="white"/>
</svg>
